<!DOCTYPE svg PUBLIC "-//W3C//DTD SVG 1.1//EN" "http://www.w3.org/Graphics/SVG/1.1/DTD/svg11.dtd">
<!-- Uploaded to: SVG Repo, www.svgrepo.com, Transformed by: SVG Repo Mixer Tools -->
<svg fill="#feffff" height="800px" width="800px" version="1.1" id="Layer_1" xmlns="http://www.w3.org/2000/svg" xmlns:xlink="http://www.w3.org/1999/xlink" viewBox="0 0 512.003 512.003" xml:space="preserve" stroke="#feffff" transform="rotate(0)matrix(-1, 0, 0, 1, 0, 0)" stroke-width="3.584021000000001">
<g id="SVGRepo_bgCarrier" stroke-width="0"/>
<g id="SVGRepo_tracerCarrier" stroke-linecap="round" stroke-linejoin="round"/>
<g id="SVGRepo_iconCarrier"> <g> <g> <path d="M417.002,179.471c-4.267-3.884-10.877-3.57-14.76,0.698l-0.164,0.181c-3.883,4.27-3.57,10.878,0.699,14.76 c2.001,1.822,4.518,2.72,7.027,2.72c2.84,0,5.672-1.151,7.733-3.418l0.164-0.181C421.584,189.962,421.271,183.354,417.002,179.471 z"/> </g> </g> <g> <g> <path d="M394.113,204.678c-4.273-3.878-10.883-3.557-14.759,0.717l-68.202,75.162c-3.879,4.273-3.558,10.881,0.716,14.759 c2.001,1.815,4.514,2.71,7.019,2.71c2.844,0,5.679-1.156,7.741-3.427l68.203-75.162 C398.708,215.165,398.387,208.556,394.113,204.678z"/> </g> </g> <g> <g> <path d="M503.407,0.963c-2.579-1.193-5.448-1.251-7.987-0.32c0-0.002,0-0.003-0.001-0.005L9.377,179.106 c-3.876,1.423-6.55,4.996-6.823,9.116c-0.275,4.12,1.904,8.016,5.558,9.939l137.867,72.584v169.208 c0,4.679,3.111,8.787,7.612,10.057c0.94,0.265,1.895,0.393,2.837,0.393c1.992,0,3.923-0.589,5.586-1.644 c0.004,0.006,0.008,0.01,0.014,0.017l113.3-71.9l141.89,132.319c1.966,1.833,4.523,2.807,7.127,2.807c1.15,0,2.31-0.19,3.431-0.58 c3.66-1.273,6.315-4.467,6.898-8.299l74.678-491.105C510.051,7.42,507.628,2.915,503.407,0.963z M155.482,252.132l-116.834-61.51 L434.512,45.265L155.482,252.132z M166.876,269.699h0.001l261.434-193.82L221.954,313.315c-0.386,0.444-0.718,0.915-1.016,1.401 c-0.002-0.003-0.004-0.004-0.007-0.007l-54.055,88.198V269.699z M188.896,406.972l43.17-70.439l27.465,25.613L188.896,406.972z M416.988,480.407L244.345,319.408l238.93-274.914L416.988,480.407z"/> </g> </g> </g>
</svg>